# xmcd
#
# Track frame offsets:
#	150
#	18282
#	35671
#	57559
#	63204
#	84231
#	99836
#	137892
#	150936
#	155795
#	177147
#
# Disc length: 2549 seconds
#
# Revision: 0
# Processed by: cddbd v1.5.2PL0 Copyright (c) Steve Scherf et al.
# Submitted via: EasyCDDAExtractor 12.0.1.1
#
DISCID=8109f30b
DTITLE=Taylor, Sean - Calcutta Grove
DYEAR=2009
DGENRE=Blues
TTITLE0=Calcutta Grove
TTITLE1=Revelations
TTITLE2=Buried Alive
TTITLE3=Salvo
TTITLE4=Hard Time Killing Floor
TTITLE5=Lost At Sea
TTITLE6=Nightmares
TTITLE7=Hold On To Your Love
TTITLE8=The Concept Of Irony
TTITLE9=Freedom
TTITLE10=The River Merchant's Wife
EXTD=
EXTT0=
EXTT1=
EXTT2=
EXTT3=
EXTT4=
EXTT5=
EXTT6=
EXTT7=
EXTT8=
EXTT9=
EXTT10=
PLAYORDER=
